<?xml version="1.0" encoding="UTF-8"?>
<!DOCTYPE svg PUBLIC "-//W3C//DTD SVG 1.1//EN" "http://www.w3.org/Graphics/SVG/1.1/DTD/svg11.dtd">
<!-- Creator: CorelDRAW 2019 (64-Bit) -->
<svg xmlns="http://www.w3.org/2000/svg" xml:space="preserve" width="2480px" height="3508px" version="1.1" style="shape-rendering:geometricPrecision; text-rendering:geometricPrecision; image-rendering:optimizeQuality; fill-rule:evenodd; clip-rule:evenodd"
viewBox="0 0 2480 3507.43"
 xmlns:xlink="http://www.w3.org/1999/xlink"
 xmlns:xodm="http://www.corel.com/coreldraw/odm/2003">
 <defs>
  <style type="text/css">
   <![CDATA[
    .str0 {stroke:#E6E6E6;stroke-width:5;stroke-miterlimit:22.9256}
    .str2 {stroke:#CCCCCC;stroke-width:2.36;stroke-miterlimit:22.9256}
    .str1 {stroke:#E6E6E6;stroke-width:2.36;stroke-miterlimit:22.9256}
    .fil0 {fill:none}
    .fil4 {fill:black}
    .fil2 {fill:#CCCCCC}
    .fil1 {fill:#E6E6E6}
    .fil3 {fill:url(#id0)}
    .fil5 {fill:url(#id1);fill-rule:nonzero}
    .fil6 {fill:url(#id2);fill-rule:nonzero}
   ]]>
  </style>
  <linearGradient id="id0" gradientUnits="userSpaceOnUse" x1="1394.54" y1="1461.61" x2="1250.77" y2="1762.9">
   <stop offset="0" style="stop-opacity:1; stop-color:#6E017C"/>
   <stop offset="1" style="stop-opacity:1; stop-color:#CB37FD"/>
  </linearGradient>
  <linearGradient id="id1" gradientUnits="objectBoundingBox" x1="45.2479%" y1="0.0346168%" x2="45.2484%" y2="93.3%">
   <stop offset="0" style="stop-opacity:1; stop-color:#6C007A"/>
   <stop offset="1" style="stop-opacity:1; stop-color:#CD38FF"/>
  </linearGradient>
  <linearGradient id="id2" gradientUnits="objectBoundingBox" xlink:href="#id1" x1="48.8212%" y1="18.6716%" x2="48.8213%" y2="82.3558%">
  </linearGradient>
 </defs>
 <g id="Layer_x0020_1">
  <metadata id="CorelCorpID_0Corel-Layer"/>
  <g id="_2452219851728">
   <g>
    <path class="fil0 str0" d="M1156.1 1538.12c0,0 297.74,-87.77 389.95,-93.32 92.22,-5.56 75.55,119.99 38.89,188.87 -36.66,68.88 -124.43,171.08 -213.31,128.87 -88.88,-42.22 -333.29,-205.53 -215.53,-224.42z"/>
    <path class="fil1 str1" d="M1169.44 1542.52c0,0 279.13,-82.28 365.57,-87.49 86.45,-5.2 70.83,112.49 36.46,177.07 -34.37,64.57 -116.65,160.39 -199.98,120.81 -83.32,-39.57 -312.46,-192.68 -202.05,-210.39z"/>
    <path class="fil1 str1" d="M1574.76 1625.62c-1.07,2.21 -2.17,4.37 -3.29,6.48 -34.37,64.57 -116.65,160.39 -199.98,120.81 -64.28,-30.53 -215.33,-128.63 -230.3,-180 4.51,-2.36 10.37,-4.19 17.83,-5.39 0,0 279.13,-82.28 365.58,-87.49 73.7,-4.44 73.21,80.45 50.16,145.59z"/>
    <path class="fil2 str2" d="M1159.02 1567.52c0,0 279.13,-82.28 365.58,-87.49 73.7,-4.44 73.21,80.45 50.16,145.59 -1.07,2.21 -2.17,4.37 -3.29,6.48 -34.37,64.57 -116.65,160.39 -199.98,120.81 -64.28,-30.53 -215.33,-128.63 -230.3,-180 4.51,-2.36 10.37,-4.19 17.83,-5.39z"/>
    <path class="fil3" d="M1400.63 1462.1c20.76,3.36 34.87,22.92 31.51,43.69 -3.36,20.76 -22.92,34.87 -43.69,31.5 -20.76,-3.36 -34.87,-22.92 -31.51,-43.68 3.36,-20.77 22.92,-34.87 43.69,-31.51zm-31.54 162.94l24.53 -74.99 129.34 42.62 -153.87 32.37zm-15.45 -97.62l-138.6 253.03 105.13 -85.15 106.46 40.46 -81.29 -85.93 39.03 -104.75c0,0 -20.84,0.2 -30.73,-17.66z"/>
    <circle class="fil4" transform="matrix(0.268427 0.0434648 -0.0434648 0.268427 1454.59 1715.45)" r="87.49"/>
   </g>
   <g>
    <path class="fil5" d="M1744.89 1550.01c1.8,0 2.7,-1.34 2.7,-2.92 0,-26.69 -18.62,-50.24 -48.68,-50.24 -30.06,0 -47.11,24.9 -47.11,47.78 0,15.25 7.4,32.08 22.43,44.19 15.03,12.11 27.59,21.98 27.59,27.37 0,5.16 -2.02,7.18 -5.16,7.18 -5.38,0 -9.19,-9.65 -10.09,-18.62 -0.23,-2.02 -1.12,-2.92 -2.69,-2.92l-30.96 1.57c-1.8,0 -2.69,1.12 -2.69,2.25 0,35.89 15.7,60.56 49.8,60.56 29.39,0 47.33,-24 47.33,-54.06 0,-16.6 -10.99,-32.75 -25.57,-42.62 -13.46,-9.2 -24.01,-17.28 -24.01,-24.45 0,-2.25 1.13,-4.04 3.37,-4.04 3.14,0 5.38,2.69 6.73,8.07 0.45,1.8 1.35,2.47 2.69,2.47l34.32 -1.57z"/>
    <path id="1" class="fil5" d="M1811.04 1665.54c1.57,0 2.69,-1.57 2.69,-2.91l0 -163.09c0,-1.35 -1.12,-2.25 -2.69,-2.25l-38.36 0c-1.12,0 -2.02,1.13 -2.02,2.25l0 162.64c0,1.79 1.35,3.36 2.92,3.36l37.46 0z"/>
    <path id="2" class="fil5" d="M1838.15 1662.63c0,1.56 1.35,2.91 2.47,2.91l39.03 0c1.8,0 2.92,-1.12 2.92,-3.14l0 -54.51c0,-1.35 1.12,-2.92 2.24,-2.92l16.83 0c1.57,0 2.69,-1.12 2.69,-2.47l0 -40.6c0,-1.12 -1.35,-2.24 -2.47,-2.24l-17.05 0c-1.57,0 -2.24,-0.9 -2.24,-2.02l0 -13.46c0,-1.57 1.12,-2.47 2.47,-2.47l36.34 0c1.57,0 2.91,-1.34 2.91,-2.91l0 -39.04c0,-1.34 -1.12,-2.47 -2.69,-2.47l-80.76 0c-1.57,0 -2.69,1.57 -2.69,3.14l0 162.2z"/>
    <path id="3" class="fil5" d="M1950.06 1497.29c-1.35,0 -2.24,0.9 -2.24,2.47l0 120.02c0,23.55 16.82,45.76 46.66,45.76 29.61,0 46.66,-21.98 46.66,-45.76l0 -120.24c0,-1.57 -1.35,-2.25 -2.47,-2.25l-37.91 0c-1.35,0 -2.47,1.13 -2.47,2.25l0 114.41c0,2.69 -1.12,4.71 -3.81,4.71 -2.7,0 -3.82,-2.02 -3.82,-4.94l0 -113.96c0,-1.57 -1.12,-2.47 -2.46,-2.47l-38.14 0z"/>
    <path id="4" class="fil5" d="M2133.98 1665.54c1.79,0 3.14,-1.35 3.14,-2.91l0 -116.88c0,-2.02 1.12,-3.14 2.69,-3.14l22.43 0c1.8,0 3.14,-1.35 3.14,-3.14l0 -39.48c0,-1.8 -1.34,-2.7 -2.91,-2.7l-96.01 0c-1.35,0 -2.02,0.9 -2.02,2.25l0 39.93c0,1.34 1.57,3.14 2.91,3.14l22.43 0c1.58,0 2.92,1.12 2.92,2.69l0 117.1c0,1.79 1.57,3.14 3.14,3.14l38.14 0z"/>
    <path id="5" class="fil5" d="M2282 1550.01c1.8,0 2.7,-1.34 2.7,-2.92 0,-26.69 -18.62,-50.24 -48.68,-50.24 -30.06,0 -47.11,24.9 -47.11,47.78 0,15.25 7.4,32.08 22.43,44.19 15.03,12.11 27.59,21.98 27.59,27.37 0,5.16 -2.02,7.18 -5.16,7.18 -5.38,0 -9.19,-9.65 -10.09,-18.62 -0.23,-2.02 -1.12,-2.92 -2.69,-2.92l-30.96 1.57c-1.8,0 -2.69,1.12 -2.69,2.25 0,35.89 15.7,60.56 49.8,60.56 29.39,0 47.33,-24 47.33,-54.06 0,-16.6 -10.99,-32.75 -25.57,-42.62 -13.46,-9.2 -24.01,-17.28 -24.01,-24.45 0,-2.25 1.13,-4.04 3.37,-4.04 3.14,0 5.38,2.69 6.73,8.07 0.45,1.8 1.35,2.47 2.69,2.47l34.32 -1.57z"/>
    <path id="6" class="fil5" d="M2333.34 1497.29c-1.34,0 -2.46,1.57 -2.69,2.7l-30.06 161.74c-0.45,2.24 0.67,3.81 2.69,3.81l37.02 0c1.12,0 2.69,-0.9 2.91,-2.47l4.27 -32.97c0.22,-1.35 1.12,-2.25 2.01,-2.25l12.12 0c1.12,0 2.02,0.68 2.24,1.8l4.49 33.65c0.22,1.34 1.57,2.24 2.91,2.24l36.35 0c2.46,0 3.58,-2.47 3.14,-4.93l-30.74 -160.4c-0.22,-1.57 -1.34,-2.92 -2.91,-2.92l-43.75 0zm26.92 106.11c0.23,2.02 -0.45,2.02 -7.62,2.02 -1.13,0 -1.58,-1.12 -1.35,-2.24l2.91 -21.31c0.45,-3.59 0.9,-5.16 1.58,-5.16 0.67,0 1.12,2.02 1.57,5.16l2.91 21.53z"/>
    <path id="7" class="fil5" d="M2475.31 1619.1c-0.67,0 -1.34,-0.67 -1.34,-1.57l0 -117.77c0,-1.34 -0.9,-2.47 -2.25,-2.47l-37.91 0c-1.57,0 -2.92,1.8 -2.92,3.14l0 162.2c0,1.56 1.13,2.91 2.47,2.91l80.31 0c1.35,0 2.47,-1.12 2.47,-2.47l0 -41.72c0,-1.12 -0.9,-2.25 -2.47,-2.25l-38.36 0z"/>
    <path class="fil6" d="M1670.48 1697.26l-2.8 2.88c-2.33,-2.25 -4.61,-3.37 -6.83,-3.37 -1.41,0 -2.62,0.46 -3.63,1.4 -1.01,0.92 -1.52,2.02 -1.52,3.26 0,1.09 0.42,2.14 1.25,3.13 0.82,1.02 2.58,2.21 5.23,3.58 3.23,1.66 5.42,3.29 6.59,4.84 1.14,1.57 1.71,3.34 1.71,5.3 0,2.78 -0.98,5.13 -2.93,7.06 -1.95,1.92 -4.39,2.89 -7.32,2.89 -1.96,0 -3.82,-0.42 -5.6,-1.27 -1.77,-0.85 -3.24,-2.02 -4.4,-3.52l2.73 -3.11c2.22,2.51 4.59,3.76 7.08,3.76 1.75,0 3.23,-0.56 4.46,-1.68 1.22,-1.11 1.84,-2.43 1.84,-3.94 0,-1.24 -0.4,-2.34 -1.21,-3.32 -0.82,-0.95 -2.64,-2.15 -5.49,-3.6 -3.06,-1.57 -5.14,-3.12 -6.23,-4.65 -1.1,-1.52 -1.66,-3.27 -1.66,-5.23 0,-2.56 0.89,-4.68 2.64,-6.38 1.76,-1.69 3.98,-2.54 6.66,-2.54 3.12,0 6.27,1.5 9.43,4.51z"/>
    <path id="1" class="fil6" d="M1720.57 1679.7c0.99,0 1.82,0.35 2.52,1.06 0.7,0.7 1.06,1.56 1.06,2.55 0,0.97 -0.36,1.82 -1.06,2.52 -0.7,0.72 -1.53,1.07 -2.52,1.07 -0.98,0 -1.81,-0.35 -2.51,-1.07 -0.7,-0.7 -1.05,-1.55 -1.05,-2.52 0,-0.99 0.35,-1.85 1.05,-2.55 0.7,-0.71 1.53,-1.06 2.51,-1.06zm-2.16 13.88l4.33 0 0 33.82 -4.33 0 0 -33.82z"/>
    <path id="2" class="fil6" d="M1806.41 1693.58l0 33.82 -4.33 0 0 -5.82c-1.83,2.22 -3.87,3.89 -6.14,4.99 -2.26,1.11 -4.74,1.66 -7.43,1.66 -4.77,0 -8.86,-1.73 -12.25,-5.19 -3.38,-3.47 -5.07,-7.68 -5.07,-12.64 0,-4.85 1.71,-9.01 5.13,-12.47 3.4,-3.45 7.51,-5.18 12.32,-5.18 2.77,0 5.27,0.59 7.52,1.76 2.24,1.16 4.22,2.93 5.92,5.29l0 -6.22 4.33 0zm-17.43 3.38c-2.42,0 -4.66,0.59 -6.7,1.78 -2.05,1.18 -3.67,2.85 -4.88,4.99 -1.21,2.15 -1.82,4.42 -1.82,6.82 0,2.36 0.61,4.63 1.83,6.8 1.22,2.17 2.85,3.85 4.91,5.05 2.06,1.21 4.27,1.82 6.63,1.82 2.36,0 4.62,-0.6 6.75,-1.8 2.13,-1.2 3.77,-2.81 4.91,-4.86 1.15,-2.04 1.72,-4.34 1.72,-6.9 0,-3.89 -1.28,-7.15 -3.86,-9.77 -2.57,-2.63 -5.73,-3.93 -9.49,-3.93z"/>
    <path id="3" class="fil6" d="M1857.14 1693.58l4.34 0 0 6.06c1.75,-2.31 3.68,-4.04 5.79,-5.18 2.12,-1.13 4.43,-1.71 6.92,-1.71 2.54,0 4.79,0.64 6.75,1.93 1.97,1.28 3.42,3.01 4.35,5.19 0.94,2.16 1.41,5.55 1.41,10.14l0 17.39 -4.34 0 0 -16.11c0,-3.89 -0.17,-6.49 -0.49,-7.79 -0.53,-2.23 -1.51,-3.91 -2.94,-5.04 -1.44,-1.13 -3.31,-1.69 -5.61,-1.69 -2.64,0 -5.01,0.87 -7.09,2.61 -2.09,1.73 -3.47,3.88 -4.13,6.45 -0.41,1.68 -0.62,4.74 -0.62,9.18l0 12.39 -4.34 0 0 -33.82z"/>
    <polygon id="4" class="fil6" points="1940.66,1680.97 1944.99,1680.97 1944.99,1693.58 1951.87,1693.58 1951.87,1697.34 1944.99,1697.34 1944.99,1727.4 1940.66,1727.4 1940.66,1697.34 1934.74,1697.34 1934.74,1693.58 1940.66,1693.58 "/>
    <path id="5" class="fil6" d="M2033.09 1693.58l0 33.82 -4.33 0 0 -5.82c-1.83,2.22 -3.86,3.89 -6.14,4.99 -2.26,1.11 -4.74,1.66 -7.43,1.66 -4.77,0 -8.86,-1.73 -12.25,-5.19 -3.38,-3.47 -5.07,-7.68 -5.07,-12.64 0,-4.85 1.71,-9.01 5.13,-12.47 3.4,-3.45 7.51,-5.18 12.32,-5.18 2.77,0 5.28,0.59 7.53,1.76 2.24,1.16 4.21,2.93 5.91,5.29l0 -6.22 4.33 0zm-17.43 3.38c-2.42,0 -4.66,0.59 -6.7,1.78 -2.05,1.18 -3.67,2.85 -4.88,4.99 -1.21,2.15 -1.82,4.42 -1.82,6.82 0,2.36 0.61,4.63 1.83,6.8 1.22,2.17 2.85,3.85 4.91,5.05 2.06,1.21 4.27,1.82 6.63,1.82 2.36,0 4.63,-0.6 6.75,-1.8 2.13,-1.2 3.77,-2.81 4.91,-4.86 1.15,-2.04 1.72,-4.34 1.72,-6.9 0,-3.89 -1.28,-7.15 -3.86,-9.77 -2.57,-2.63 -5.73,-3.93 -9.49,-3.93z"/>
    <path id="6" class="fil6" d="M2082.17 1693.58l4.46 0 0 4.95c1.32,-1.95 2.73,-3.4 4.2,-4.35 1.48,-0.95 3.02,-1.43 4.61,-1.43 1.21,0 2.49,0.39 3.86,1.15l-2.27 3.65c-0.91,-0.39 -1.68,-0.59 -2.3,-0.59 -1.46,0 -2.86,0.59 -4.21,1.78 -1.34,1.19 -2.37,3.05 -3.09,5.55 -0.54,1.92 -0.8,5.82 -0.8,11.68l0 11.43 -4.46 0 0 -33.82z"/>
    <path id="7" class="fil6" d="M2175.55 1680.57l0 4.23c-1.61,-0.69 -2.99,-1.03 -4.13,-1.03 -0.86,0 -1.57,0.17 -2.14,0.51 -0.56,0.34 -0.92,0.74 -1.06,1.18 -0.15,0.45 -0.22,1.64 -0.22,3.56l0 4.56 7.1 0 0 3.76 -7.11 0 -0.02 30.06 -4.33 0 0 -30.06 -4.46 0 0 -3.76 4.46 0 0 -5.26c0,-2.42 0.22,-4.15 0.67,-5.18 0.44,-1.03 1.2,-1.87 2.28,-2.5 1.06,-0.62 2.35,-0.94 3.87,-0.94 1.41,0 3.11,0.29 5.09,0.87z"/>
    <path id="8" class="fil6" d="M2221.88 1693.58l4.33 0 0 15.79c0,3.85 0.21,6.49 0.62,7.95 0.62,2.07 1.82,3.7 3.57,4.9 1.75,1.2 3.85,1.81 6.28,1.81 2.44,0 4.49,-0.59 6.19,-1.76 1.69,-1.17 2.87,-2.7 3.51,-4.61 0.43,-1.31 0.65,-4.07 0.65,-8.29l0 -15.79 4.46 0 0 16.58c0,4.66 -0.54,8.17 -1.63,10.52 -1.08,2.37 -2.73,4.22 -4.92,5.54 -2.18,1.34 -4.92,2.01 -8.22,2.01 -3.3,0 -6.05,-0.67 -8.26,-2.01 -2.21,-1.32 -3.87,-3.19 -4.95,-5.58 -1.09,-2.39 -1.63,-5.99 -1.63,-10.79l0 -16.27z"/>
    <polygon id="9" class="fil6" points="2305.84,1680.97 2310.17,1680.97 2310.17,1693.58 2317.05,1693.58 2317.05,1697.34 2310.17,1697.34 2310.17,1727.4 2305.84,1727.4 2305.84,1697.34 2299.91,1697.34 2299.91,1693.58 2305.84,1693.58 "/>
    <path id="10" class="fil6" d="M2381.65 1697.26l-2.81 2.88c-2.32,-2.25 -4.6,-3.37 -6.82,-3.37 -1.41,0 -2.62,0.46 -3.63,1.4 -1.01,0.92 -1.52,2.02 -1.52,3.26 0,1.09 0.41,2.14 1.24,3.13 0.83,1.02 2.58,2.21 5.23,3.58 3.23,1.66 5.43,3.29 6.6,4.84 1.13,1.57 1.71,3.34 1.71,5.3 0,2.78 -0.98,5.13 -2.93,7.06 -1.96,1.92 -4.4,2.89 -7.33,2.89 -1.95,0 -3.81,-0.42 -5.59,-1.27 -1.78,-0.85 -3.24,-2.02 -4.41,-3.52l2.74 -3.11c2.22,2.51 4.59,3.76 7.08,3.76 1.74,0 3.23,-0.56 4.46,-1.68 1.22,-1.11 1.84,-2.43 1.84,-3.94 0,-1.24 -0.41,-2.34 -1.21,-3.32 -0.82,-0.95 -2.65,-2.15 -5.49,-3.6 -3.06,-1.57 -5.14,-3.12 -6.23,-4.65 -1.11,-1.52 -1.66,-3.27 -1.66,-5.23 0,-2.56 0.88,-4.68 2.63,-6.38 1.77,-1.69 3.98,-2.54 6.67,-2.54 3.12,0 6.26,1.5 9.43,4.51z"/>
    <path id="11" class="fil6" d="M2463.91 1693.58l0 33.82 -4.33 0 0 -5.82c-1.83,2.22 -3.87,3.89 -6.14,4.99 -2.26,1.11 -4.74,1.66 -7.43,1.66 -4.77,0 -8.86,-1.73 -12.25,-5.19 -3.38,-3.47 -5.07,-7.68 -5.07,-12.64 0,-4.85 1.71,-9.01 5.13,-12.47 3.4,-3.45 7.51,-5.18 12.32,-5.18 2.77,0 5.27,0.59 7.52,1.76 2.24,1.16 4.22,2.93 5.92,5.29l0 -6.22 4.33 0zm-17.43 3.38c-2.42,0 -4.66,0.59 -6.7,1.78 -2.05,1.18 -3.67,2.85 -4.88,4.99 -1.21,2.15 -1.82,4.42 -1.82,6.82 0,2.36 0.61,4.63 1.83,6.8 1.22,2.17 2.85,3.85 4.91,5.05 2.06,1.21 4.27,1.82 6.63,1.82 2.36,0 4.62,-0.6 6.75,-1.8 2.13,-1.2 3.77,-2.81 4.91,-4.86 1.15,-2.04 1.72,-4.34 1.72,-6.9 0,-3.89 -1.28,-7.15 -3.86,-9.77 -2.57,-2.63 -5.73,-3.93 -9.49,-3.93z"/>
    <polygon id="12" class="fil6" points="2514.01,1680.53 2518.34,1680.53 2518.34,1727.4 2514.01,1727.4 "/>
   </g>
  </g>
 </g>
</svg>
